<?xml version="1.0" standalone="no"?>
<!DOCTYPE svg PUBLIC "-//W3C//DTD SVG 20010904//EN"
 "http://www.w3.org/TR/2001/REC-SVG-20010904/DTD/svg10.dtd">
<svg version="1.0" xmlns="http://www.w3.org/2000/svg"
 width="765.000000pt" height="765.000000pt" viewBox="0 0 765.000000 765.000000"
 preserveAspectRatio="xMidYMid meet">
<metadata>
Created by potrace 1.11, written by Peter Selinger 2001-2013
</metadata>
<g transform="translate(0.000000,765.000000) scale(0.100000,-0.100000)"
fill="#000000" stroke="none">
<path d="M2029 7426 c-2 -2 -36 -7 -75 -10 -145 -13 -377 -67 -544 -128 -137
-50 -354 -152 -391 -184 -8 -8 -19 -14 -24 -14 -4 0 -23 -11 -41 -25 -18 -14
-35 -25 -39 -25 -3 0 -47 -30 -98 -67 -173 -127 -321 -277 -426 -432 -50 -73
-180 -322 -211 -401 -11 -30 -25 -64 -30 -75 -12 -25 -60 -164 -65 -186 -2 -9
-13 -52 -24 -95 -11 -44 -23 -92 -25 -109 -3 -16 -10 -57 -16 -90 -14 -73 -20
-377 -10 -460 18 -145 22 -170 31 -192 5 -13 7 -23 4 -23 -2 0 1 -15 6 -32 6
-18 13 -46 15 -61 5 -29 70 -218 95 -278 62 -148 164 -333 272 -494 54 -81
163 -233 177 -245 3 -3 32 -39 65 -80 153 -191 443 -496 718 -754 167 -156
178 -166 267 -246 46 -41 98 -88 115 -105 18 -16 64 -58 101 -91 38 -34 81
-72 95 -85 50 -46 185 -169 206 -186 11 -10 47 -42 79 -72 33 -30 104 -95 159
-145 55 -50 213 -203 351 -341 388 -386 622 -665 811 -969 66 -106 204 -373
223 -431 19 -61 25 -61 51 2 32 79 112 243 161 328 40 69 186 295 197 305 3 3
17 21 31 40 31 45 216 276 244 306 6 6 45 49 85 95 81 91 485 497 617 619 44
41 123 113 174 160 52 47 106 96 121 110 88 80 113 102 194 175 97 87 93 85
221 200 323 292 459 421 669 635 84 85 163 167 176 181 13 15 40 44 59 65 19
22 62 71 95 109 33 39 62 72 65 75 17 15 155 197 205 270 33 47 63 87 67 88 5
2 8 8 8 14 0 5 14 29 30 53 16 24 30 48 30 54 0 6 4 11 9 11 13 0 178 337 216
443 50 139 89 292 101 392 3 22 8 51 11 65 10 45 11 363 1 430 -7 54 -19 118
-53 291 -8 38 -86 262 -118 336 -35 80 -139 284 -181 353 -71 119 -227 292
-362 401 -71 58 -240 179 -250 179 -3 0 -18 8 -32 19 -108 76 -448 217 -632
261 -25 6 -54 13 -65 15 -22 6 -167 31 -230 41 -22 3 -119 7 -215 9 -157 2
-238 -2 -337 -19 -18 -3 -48 -8 -65 -11 -18 -3 -75 -17 -125 -31 -435 -117
-805 -396 -1082 -814 -35 -52 -64 -96 -66 -98 -1 -1 -24 32 -50 74 -149 239
-380 474 -610 623 -139 90 -390 199 -517 225 -44 9 -173 34 -208 41 -40 7
-404 17 -411 11z"/>
</g>
</svg>
